<svg xmlns="http://www.w3.org/2000/svg" width="32" height="32" viewBox="0 0 32 32">
  <defs>
    <linearGradient id="g" x1="0%" y1="0%" x2="100%" y2="100%">
      <stop offset="0%" stop-color="#818CF8"/>
      <stop offset="100%" stop-color="#4F46E5"/>
    </linearGradient>
  </defs>
  <path d="M6 10a4 4 0 00-4 4v4a4 4 0 004 4h2l3 5h2l2-3h6l2 3h2l3-5h2a4 4 0 004-4v-4a4 4 0 00-4-4H6z" fill="url(#g)"/>
  <line x1="9" y1="14" x2="9" y2="20" stroke="#fff" stroke-width="1.5" stroke-linecap="round"/>
  <line x1="6" y1="17" x2="12" y2="17" stroke="#fff" stroke-width="1.5" stroke-linecap="round"/>
  <circle cx="21" cy="15" r="1.5" fill="#fff"/>
  <circle cx="24" cy="18" r="1.5" fill="#fff"/>
</svg>
